<?xml version="1.0" encoding="UTF-8" standalone="no"?>
<!DOCTYPE svg PUBLIC "-//W3C//DTD SVG 1.1//EN" "http://www.w3.org/Graphics/SVG/1.1/DTD/svg11.dtd">
<svg width="100%" height="100%" viewBox="0 0 1024 1024" version="1.1" xmlns="http://www.w3.org/2000/svg" xmlns:xlink="http://www.w3.org/1999/xlink" xml:space="preserve" xmlns:serif="http://www.serif.com/" style="fill-rule:evenodd;clip-rule:evenodd;stroke-linejoin:round;stroke-miterlimit:2;">
    <path d="M374.268,531.676C374.268,531.676 531.676,689.084 531.676,689.084C542.535,699.944 542.535,717.577 531.676,728.436L452.972,807.14C442.112,818 424.479,818 413.62,807.14C413.62,807.14 138.156,531.676 138.156,531.676C127.296,520.817 127.296,503.184 138.156,492.324L413.62,216.86L413.748,216.733C424.574,206.042 442.018,206.043 452.844,216.733L452.972,216.86L531.676,295.564C542.536,306.423 542.536,324.056 531.676,334.916L374.268,492.324C363.408,503.184 363.408,520.817 374.268,531.676L374.268,531.676ZM610.38,531.676C610.38,531.676 689.084,610.38 689.084,610.38C699.944,621.24 699.944,638.873 689.084,649.732L649.732,689.084C638.873,699.944 621.24,699.944 610.38,689.084C610.38,689.084 452.972,531.676 452.972,531.676C442.112,520.817 442.112,503.184 452.972,492.324L610.38,334.916C621.24,324.056 638.873,324.056 649.732,334.916L689.084,374.268C699.944,385.127 699.944,402.76 689.084,413.62L610.38,492.324C599.521,503.184 599.521,520.817 610.38,531.676L610.38,531.676ZM807.14,531.676C807.14,531.676 885.844,610.38 885.844,610.38C896.704,621.24 896.704,638.873 885.844,649.732L846.492,689.084C835.633,699.944 818,699.944 807.14,689.084C807.14,689.084 649.732,531.676 649.732,531.676C638.873,520.817 638.873,503.184 649.732,492.324L807.14,334.916C818,324.056 835.633,324.056 846.492,334.916L885.844,374.268C896.704,385.127 896.704,402.76 885.844,413.62L807.14,492.324C796.281,503.184 796.281,520.817 807.14,531.676L807.14,531.676Z" style="fill:white;"/>
</svg>